# xmcd
#
# Track frame offsets: 
#        150
#        10475
#        26710
#        41602
#        53115
#        69155
#        81182
#        96230
#        112427
#        126692
#        140060
#        151265
#        163207
#        171572
#        180090
#        197337
#        208412
#        228922
#        242925
#        256882
#
# Disc length: 3570 seconds
#
# Revision: 2
# Processed by: cddbd v1.5.2PL0 Copyright (c) Steve Scherf et al.
# Submitted via: ExactAudioCopy v1.0b3
#
DISCID=260df014
DTITLE=Spears, Billie Jo - Country Girl - 20 Favourite Songs
DYEAR=1995
DGENRE=Country
TTITLE0=I'm Going To Be A Country Girl Again
TTITLE1=Blanket On The Ground
TTITLE2=Crystal Chandeliers
TTITLE3=Silver Threads And Golden Needles
TTITLE4=Queen Of The Silver Dollar
TTITLE5=Misty Blue
TTITLE6=It's A Heartache
TTITLE7=Fire and Rain
TTITLE8=Cryin' Time
TTITLE9=Fever
TTITLE10=Tennessee Waltz
TTITLE11=This Ole House
TTITLE12=Rocky Top
TTITLE13=Blue Blue Day
TTITLE14=For The Good Times
TTITLE15=Here You Come Again
TTITLE16=Just The Way You Are
TTITLE17=Blue Bayou
TTITLE18=I Know I'll Never Love This Way Again
TTITLE19=All I Have To Do Is Dream
EXTD=YEAR: 1998
EXTT0=
EXTT1=
EXTT2=
EXTT3=
EXTT4=
EXTT5=
EXTT6=
EXTT7=
EXTT8=
EXTT9=
EXTT10=
EXTT11=
EXTT12=
EXTT13=
EXTT14=
EXTT15=
EXTT16=
EXTT17=
EXTT18=
EXTT19=
PLAYORDER=
